<?xml version="1.0" encoding="UTF-8"?>
<svg xmlns="http://www.w3.org/2000/svg" width="1200" height="800" viewBox="0 0 1200 800">
  <rect width="1200" height="800" rx="40" ry="40" fill="#f8fafc" />
  <rect x="80" y="160" width="1040" height="520" rx="28" fill="#ffffff" stroke="#cbd5e1" stroke-width="2" />
  <text x="100" y="110" font-family="Inter, Arial, sans-serif" font-size="48" fill="#0f172a" font-weight="700">SHAP Global</text>
  <text x="100" y="165" font-family="Inter, Arial, sans-serif" font-size="20" fill="#475569">Importancia de predictores en el modelo · cohorte KMC</text>
  <g transform="translate(140, 240)">
    <rect x="0" y="0" width="34" height="24" rx="12" fill="#ef4444" opacity="0.85" />
    <rect x="56" y="16" width="34" height="32" rx="12" fill="#ef4444" opacity="0.7" />
    <rect x="112" y="40" width="34" height="18" rx="12" fill="#ef4444" opacity="0.6" />
    <rect x="168" y="68" width="34" height="48" rx="12" fill="#2563eb" opacity="0.85" />
    <rect x="224" y="100" width="34" height="30" rx="12" fill="#2563eb" opacity="0.7" />
    <rect x="280" y="80" width="34" height="24" rx="12" fill="#2563eb" opacity="0.6" />
    <rect x="336" y="96" width="34" height="36" rx="12" fill="#0ea5e9" opacity="0.55" />
    <rect x="392" y="52" width="34" height="54" rx="12" fill="#ec4899" opacity="0.55" />
    <rect x="448" y="24" width="34" height="60" rx="12" fill="#10b981" opacity="0.55" />
  </g>
  <g transform="translate(720, 250)">
    <circle cx="0" cy="0" r="14" fill="#ef4444" opacity="0.8" />
    <circle cx="48" cy="18" r="12" fill="#0ea5e9" opacity="0.75" />
    <circle cx="96" cy="-12" r="16" fill="#10b981" opacity="0.9" />
    <circle cx="144" cy="36" r="10" fill="#2563eb" opacity="0.7" />
    <circle cx="192" cy="-32" r="18" fill="#f97316" opacity="0.85" />
    <circle cx="240" cy="8" r="14" fill="#8b5cf6" opacity="0.8" />
  </g>
  <text x="100" y="720" font-family="Inter, Arial, sans-serif" font-size="18" fill="#64748b">Placeholder gráfico SHAP para explicación de importancias de predictores.</text>
</svg>
